<?xml version="1.0" encoding="iso-8859-1"?>
<!-- Generator: Adobe Illustrator 21.0.0, SVG Export Plug-In . SVG Version: 6.00 Build 0)  -->
<svg version="1.1" id="Layer_1" xmlns="http://www.w3.org/2000/svg" xmlns:xlink="http://www.w3.org/1999/xlink" x="0px" y="0px"
	 viewBox="0 0 100.353 100.353" style="enable-background:new 0 0 100.353 100.353;" xml:space="preserve">
<g>
	<path style="fill:#231F20;" d="M9.174,27.279h9.926c0.726,4.737,4.817,8.379,9.753,8.379s9.026-3.643,9.753-8.379h53.753
		c0.828,0,1.5-0.671,1.5-1.5s-0.672-1.5-1.5-1.5H38.605c-0.726-4.736-4.817-8.379-9.753-8.379s-9.026,3.643-9.753,8.379H9.174
		c-0.829,0-1.5,0.671-1.5,1.5S8.345,27.279,9.174,27.279z M28.852,18.9c3.791,0,6.875,3.083,6.879,6.872
		c0,0.002-0.001,0.004-0.001,0.006s0.001,0.004,0.001,0.006c-0.004,3.79-3.088,6.873-6.879,6.873c-3.793,0-6.879-3.086-6.879-6.879
		C21.973,21.986,25.059,18.9,28.852,18.9z"/>
	<path style="fill:#231F20;" d="M56.339,51.507c0.726,4.736,4.817,8.379,9.753,8.379s9.026-3.643,9.753-8.379h15.334
		c0.828,0,1.5-0.672,1.5-1.5c0-0.829-0.672-1.5-1.5-1.5H75.844c-0.726-4.736-4.817-8.379-9.753-8.379s-9.026,3.643-9.753,8.379
		H7.995c-0.829,0-1.5,0.671-1.5,1.5c0,0.828,0.671,1.5,1.5,1.5H56.339z M66.092,43.128c3.793,0,6.879,3.086,6.879,6.879
		s-3.086,6.879-6.879,6.879c-3.791,0-6.875-3.083-6.879-6.872c0-0.002,0.001-0.004,0.001-0.006S59.213,50.003,59.213,50
		C59.217,46.21,62.301,43.128,66.092,43.128z"/>
	<path style="fill:#231F20;" d="M92.357,73.074H38.605c-0.726-4.736-4.817-8.379-9.753-8.379s-9.026,3.643-9.753,8.379H9.174
		c-0.829,0-1.5,0.672-1.5,1.5s0.671,1.5,1.5,1.5h9.926c0.726,4.736,4.817,8.379,9.753,8.379s9.026-3.643,9.753-8.379h53.753
		c0.828,0,1.5-0.672,1.5-1.5S93.186,73.074,92.357,73.074z M28.852,81.453c-3.793,0-6.879-3.086-6.879-6.879
		s3.086-6.879,6.879-6.879s6.879,3.086,6.879,6.879S32.645,81.453,28.852,81.453z"/>
</g>
</svg>
