<?xml version="1.0" encoding="iso-8859-1"?>
<!-- Generator: Adobe Illustrator 21.0.0, SVG Export Plug-In . SVG Version: 6.00 Build 0)  -->
<svg version="1.1" id="Layer_1" xmlns="http://www.w3.org/2000/svg" xmlns:xlink="http://www.w3.org/1999/xlink" x="0px" y="0px"
	 viewBox="0 0 100.353 100.353" style="enable-background:new 0 0 100.353 100.353;" xml:space="preserve">
<g>
	<path style="fill:#231F20;" d="M7.275,32.181c0.829,0,1.5-0.671,1.5-1.5V15.006h15.18c0.829,0,1.5-0.671,1.5-1.5
		s-0.671-1.5-1.5-1.5H7.275c-0.829,0-1.5,0.671-1.5,1.5v17.175C5.775,31.51,6.446,32.181,7.275,32.181z"/>
	<path style="fill:#231F20;" d="M92.726,12.006h-16.68c-0.828,0-1.5,0.671-1.5,1.5s0.672,1.5,1.5,1.5h15.18v15.675
		c0,0.829,0.672,1.5,1.5,1.5s1.5-0.671,1.5-1.5V13.506C94.226,12.677,93.554,12.006,92.726,12.006z"/>
	<path style="fill:#231F20;" d="M92.726,67.819c-0.828,0-1.5,0.672-1.5,1.5v15.674h-15.18c-0.828,0-1.5,0.672-1.5,1.5
		s0.672,1.5,1.5,1.5h16.68c0.828,0,1.5-0.672,1.5-1.5V69.319C94.226,68.491,93.554,67.819,92.726,67.819z"/>
	<path style="fill:#231F20;" d="M23.955,84.993H8.775V69.319c0-0.828-0.671-1.5-1.5-1.5s-1.5,0.672-1.5,1.5v17.174
		c0,0.828,0.671,1.5,1.5,1.5h16.68c0.829,0,1.5-0.672,1.5-1.5S24.784,84.993,23.955,84.993z"/>
	<path style="fill:#231F20;" d="M49.843,77.894c0.003-0.002,0.007-0.003,0.011-0.005l0.006-0.004c0,0,0,0,0,0L79.841,57.9
		c0.417-0.278,0.668-0.746,0.668-1.248V39.161c0,0,0,0,0,0s0,0,0-0.001c0-0.001,0-0.002,0-0.002c0-0.002,0-0.002,0-0.003
		c-0.002-0.375-0.141-0.716-0.369-0.979c-0.044-0.051-0.092-0.099-0.144-0.144c-0.055-0.048-0.113-0.092-0.176-0.132L55.558,21.754
		c-0.504-0.335-1.159-0.335-1.663,0.001L23.939,41.727c-0.162,0.103-0.307,0.239-0.423,0.405c-0.011,0.016-0.021,0.032-0.032,0.048
		c-0.166,0.257-0.244,0.547-0.239,0.833v17.472c0,0.502,0.251,0.971,0.669,1.249L48.191,77.89c0.005,0.003,0.01,0.004,0.015,0.007
		c0.105,0.068,0.22,0.119,0.341,0.16c0.03,0.01,0.059,0.02,0.089,0.028c0.124,0.033,0.252,0.056,0.386,0.056
		c0.134,0,0.262-0.023,0.386-0.057c0.03-0.008,0.06-0.018,0.09-0.028C49.62,78.015,49.737,77.963,49.843,77.894z M77.509,55.85
		L50.521,73.839V59.954l26.987-17.991V55.85z M54.728,24.805l21.575,14.357L49.021,57.349L27.45,42.992L54.728,24.805z
		 M26.244,45.793l21.278,14.162v13.886L26.244,59.682V45.793z"/>
</g>
</svg>
