<?xml version="1.0" encoding="iso-8859-1"?>
<!-- Generator: Adobe Illustrator 21.0.0, SVG Export Plug-In . SVG Version: 6.00 Build 0)  -->
<svg version="1.1" id="Layer_1" xmlns="http://www.w3.org/2000/svg" xmlns:xlink="http://www.w3.org/1999/xlink" x="0px" y="0px"
	 viewBox="0 0 100.353 100.353" style="enable-background:new 0 0 100.353 100.353;" xml:space="preserve">
<g>
	<path style="fill:#231F20;" d="M81.518,26.227H70.151l-7.966-14.405c-0.264-0.478-0.767-0.774-1.312-0.774H39.101
		c-0.55,0-1.055,0.301-1.318,0.784l-7.825,14.396H18.482c-0.829,0-1.5,0.671-1.5,1.5v41.379c0,0.828,0.671,1.5,1.5,1.5h27.097
		L33.621,86.552c-0.497,0.663-0.362,1.604,0.3,2.101c0.27,0.202,0.585,0.3,0.899,0.3c0.456,0,0.906-0.207,1.201-0.6L49.33,70.606
		h0.445l13.309,17.746c0.295,0.393,0.745,0.6,1.201,0.6c0.313,0,0.629-0.098,0.899-0.3c0.662-0.497,0.797-1.438,0.3-2.101
		L53.526,70.606h27.992c0.828,0,1.5-0.672,1.5-1.5V27.727C83.018,26.898,82.346,26.227,81.518,26.227z M80.018,67.606H19.982V29.227
		H30.85c0.55,0,1.055-0.301,1.318-0.784l7.825-14.396h19.995l7.966,14.405c0.264,0.478,0.767,0.774,1.312,0.774h10.751V67.606z"/>
	<path style="fill:#231F20;" d="M49.997,31.57c-6.893,0-12.5,5.61-12.5,12.505c0,6.894,5.607,12.502,12.5,12.502
		c6.887,0,12.49-5.608,12.49-12.502C62.487,37.181,56.885,31.571,49.997,31.57z M49.997,53.577c-5.238,0-9.5-4.263-9.5-9.502
		c0-5.241,4.262-9.505,9.5-9.505c5.232,0.001,9.49,4.265,9.49,9.505C59.487,49.314,55.23,53.577,49.997,53.577z"/>
</g>
</svg>
