<?xml version="1.0" encoding="iso-8859-1"?>
<!-- Generator: Adobe Illustrator 21.0.0, SVG Export Plug-In . SVG Version: 6.00 Build 0)  -->
<svg version="1.1" id="Layer_1" xmlns="http://www.w3.org/2000/svg" xmlns:xlink="http://www.w3.org/1999/xlink" x="0px" y="0px"
	 viewBox="0 0 100.353 100.353" style="enable-background:new 0 0 100.353 100.353;" xml:space="preserve">
<path style="fill:#231F20;" d="M83.851,9.462H48.322c-0.55-0.164-1.171-0.006-1.569,0.459L33.924,24.893h-7.043
	c-0.829,0-1.5,0.671-1.5,1.5v9.659c0,0.829,0.671,1.5,1.5,1.5h6.07V71.89L15.465,89.382c-0.585,0.586-0.585,1.536,0,2.121
	c0.293,0.293,0.677,0.439,1.061,0.439s0.768-0.146,1.061-0.439l15.364-15.369v14.308c0,0.828,0.671,1.5,1.5,1.5s1.5-0.672,1.5-1.5
	V76.141l15.357,15.362c0.293,0.293,0.677,0.439,1.061,0.439s0.768-0.146,1.061-0.439c0.586-0.585,0.586-1.535,0-2.121L35.951,71.898
	V39.039l10.795,9.028c0.067,0.056,0.146,0.083,0.219,0.125c0.246,0.176,0.545,0.283,0.871,0.283h36.015c0.828,0,1.5-0.671,1.5-1.5
	V10.962C85.351,10.133,84.679,9.462,83.851,9.462z M28.381,27.893h4.57v6.659h-4.57V27.893z M35.951,27.138l10.385-12.119v28.795
	l-10.385-8.685V27.138z M82.351,45.475H49.336V12.462h33.015V45.475z"/>
</svg>
