<?xml version="1.0" encoding="iso-8859-1"?>
<!-- Generator: Adobe Illustrator 21.0.0, SVG Export Plug-In . SVG Version: 6.00 Build 0)  -->
<svg version="1.1" id="Layer_1" xmlns="http://www.w3.org/2000/svg" xmlns:xlink="http://www.w3.org/1999/xlink" x="0px" y="0px"
	 viewBox="0 0 100.353 100.353" style="enable-background:new 0 0 100.353 100.353;" xml:space="preserve">
<g>
	<path style="fill:#231F20;" d="M38.491,43.479c6.669,0,12.36-4.207,14.6-10.102c2.241,5.895,7.936,10.103,14.61,10.103
		c8.615,0,15.624-7.013,15.624-15.633c0-8.62-7.009-15.632-15.624-15.632c-6.674,0-12.369,4.208-14.61,10.102
		c-2.24-5.894-7.931-10.102-14.6-10.102c-8.618,0-15.629,7.013-15.629,15.632S29.873,43.479,38.491,43.479z M67.701,15.215
		c6.961,0,12.624,5.667,12.624,12.632c0,6.966-5.663,12.633-12.624,12.633c-6.97,0-12.64-5.667-12.64-12.633
		C55.062,20.882,60.731,15.215,67.701,15.215z M38.491,15.215c6.963,0,12.629,5.667,12.629,12.632s-5.666,12.632-12.629,12.632
		c-6.964,0-12.629-5.667-12.629-12.632S31.527,15.215,38.491,15.215z"/>
	<path style="fill:#231F20;" d="M90.203,57.823H82.92v-7.967c0-0.829-0.672-1.5-1.5-1.5H25.924c-0.829,0-1.5,0.671-1.5,1.5v12.51
		L6.398,54.495c-0.463-0.202-0.998-0.157-1.421,0.12s-0.679,0.749-0.679,1.255v24.401c0,0.506,0.255,0.978,0.678,1.255
		c0.248,0.162,0.534,0.245,0.822,0.245c0.204,0,0.408-0.041,0.6-0.125l18.026-7.868v12.505c0,0.828,0.671,1.5,1.5,1.5H81.42
		c0.828,0,1.5-0.672,1.5-1.5v-7.974h7.283c0.828,0,1.5-0.672,1.5-1.5V59.323C91.703,58.495,91.031,57.823,90.203,57.823z
		 M24.375,70.526L7.298,77.98V58.162l17.069,7.453c0.019,0.008,0.038,0.011,0.057,0.018v4.877
		C24.408,70.517,24.391,70.519,24.375,70.526z M79.92,84.784H27.424V51.355H79.92v7.968v17.487V84.784z M88.703,75.311H82.92V60.823
		h5.783V75.311z"/>
	<path style="fill:#231F20;" d="M38.492,34.362c3.593,0,6.516-2.923,6.516-6.516s-2.923-6.516-6.516-6.516s-6.516,2.923-6.516,6.516
		S34.899,34.362,38.492,34.362z M38.492,24.33c1.938,0,3.516,1.577,3.516,3.516c0,1.938-1.577,3.516-3.516,3.516
		c-1.939,0-3.516-1.577-3.516-3.516C34.976,25.907,36.553,24.33,38.492,24.33z"/>
	<path style="fill:#231F20;" d="M67.692,34.362c3.595,0,6.519-2.923,6.519-6.516s-2.924-6.516-6.519-6.516s-6.52,2.923-6.52,6.516
		S64.098,34.362,67.692,34.362z M67.692,24.33c1.94,0,3.519,1.577,3.519,3.516c0,1.938-1.578,3.516-3.519,3.516
		s-3.52-1.577-3.52-3.516C64.173,25.907,65.752,24.33,67.692,24.33z"/>
</g>
</svg>
